<?xml version="1.0" encoding="UTF-8"?>
<svg id="Layer_1" xmlns="http://www.w3.org/2000/svg" version="1.1" viewBox="0 0 1051.9 328.9">
  <!-- Generator: Adobe Illustrator 29.5.1, SVG Export Plug-In . SVG Version: 2.1.0 Build 141)  -->
  <defs>
    <style>
      .st0 {
        fill: #576fb5;
      }

      .st1 {
        fill: #fff;
      }
    </style>
  </defs>
  <g>
    <path class="st1" d="M140.9,130.1l-4.4,4.4v21.5c7.7,4.3,13,12.6,13,22.1,0,14-11.4,25.4-25.4,25.4s-25.4-11.4-25.4-25.4c0-9.6,5.4-18,13.3-22.3v-21.3s-4.4-4.5-4.4-4.5c-20,6.9-34.3,25.8-34.3,48.1s22.8,50.9,50.9,50.9,50.9-22.8,50.9-50.9c0-22.2-14.2-41.1-34.1-48Z"/>
    <path class="st1" d="M159.1,88.3v5h0v18.2l-1.7,1.8-.9.9c23.3,11.8,39.2,36,39.2,63.9,0,39.5-32.1,71.6-71.6,71.6s-71.6-32.1-71.6-71.6,16-52.2,39.4-64l-.8-.8-1.7-1.8v-12.7s0-7.7,0-7.7v-2.9c-36.1,13.9-61.7,49-61.7,90s43.2,96.4,96.4,96.4,96.4-43.2,96.4-96.4-25.5-75.9-61.4-89.9Z"/>
    <path class="st1" d="M103.1,41.9l1.9.5c1.1.3,1.9,1.1,2.1,2.2l.4,1.5c.1.5.9.5,1,0l.4-1.6c.3-1,1.1-1.8,2.1-2.1l1.8-.5c.5-.2.5-.9,0-1l-1.6-.4c-1.1-.3-1.9-1.1-2.2-2.1l-.5-1.9c-.1-.5-.9-.5-1,0l-.5,1.7c-.3,1-1.1,1.8-2.1,2.1l-1.9.5c-.5.2-.5.9,0,1Z"/>
    <path class="st1" d="M108.5,59.1l4.1,1.2c2.2.6,4,2.4,4.5,4.7l.8,3.2c.1.5.5.7.8.8h0s0,0,0,0c0,0,0,0,0,0h0c.4-.1.7-.4.8-.8l.8-3.2c.6-2.2,2.3-4,4.5-4.7l4.1-1.2c1.1-.3,1.1-1.9,0-2.2l-3.9-1.1c-2.2-.6-3.9-2.3-4.5-4.5l-1-3.6c-.1-.5-.5-.7-.9-.8h0s0,0,0,0c0,0,0,0,0,0h0c-.4,0-.7.4-.9.8l-1,3.6c-.6,2.2-2.3,3.9-4.5,4.5l-3.9,1.1c-1.1.3-1.1,1.9,0,2.2Z"/>
    <path class="st1" d="M132.5,51.1l2.2.6c1.2.4,2.2,1.3,2.5,2.6l.5,1.9c.2.6,1.1.6,1.3,0l.5-1.8c.3-1.3,1.3-2.3,2.6-2.7l2.3-.7c.6-.2.6-1.1,0-1.2l-2.2-.6c-1.2-.4-2.2-1.3-2.5-2.6l-.6-2.1c-.2-.6-1.1-.6-1.3,0l-.6,2.2c-.4,1.3-1.4,2.3-2.6,2.6l-1.9.5c-.6.2-.7,1.1,0,1.3Z"/>
    <g>
      <polygon class="st1" points="123.8 137.2 94.3 107.7 94.3 94.7 123.8 123.9 153.3 94.7 153.3 107.7 123.8 137.2"/>
      <polygon class="st1" points="123.8 115.9 94.3 86.4 94.3 73.4 123.8 102.6 153.3 73.4 153.3 86.4 123.8 115.9"/>
      <polygon class="st1" points="123.8 94.6 94.3 65.1 94.3 52.1 123.8 81.3 153.3 52.1 153.3 65.1 123.8 94.6"/>
    </g>
    <path class="st1" d="M118.3,128v52.8s1.3,2.1,5.4,2.1,5.6-2.1,5.6-2.1v-52.8h-11Z"/>
  </g>
  <path class="st1" d="M248.8,112.4h34.7c6.5,0,12.4,0,17.4.5,22.5,2.5,33.6,20.7,33.6,37.2s-2.7,17.3-10.2,23.1c8,5.6,13.4,16.5,13.4,28.2,0,19.4-15.3,36.3-40.7,36.3h-48.3v-125.4ZM294.1,160.6c4.5,0,9.6-3.5,9.6-9.4s-5.1-9.6-9.6-9.6h-14.4v19.1h14.4ZM297.1,208.7c4.7,0,9.8-3.1,9.8-9.4s-5.1-9.6-9.8-9.6h-17.4v19.1h17.4Z"/>
  <path class="st1" d="M435.1,229.6v8.2h-30.9v-8.2c0-14-10-25.4-24.5-25.4v33.6h-30.9v-125.4h20c14.9,0,18.9.4,22.7.7,24.7,2.7,42.7,20.2,42.7,44.7s-6.2,25.3-16.9,32.3c11.4,8.4,17.8,21.6,17.8,39.4ZM379.6,175.1c12.7,0,23.6-3.6,23.6-16.4s-10.9-17.3-23.6-17.3v33.6Z"/>
  <path class="st1" d="M535.4,112.4v125.4h-30.9v-18.2h-27.3v18.2h-30.9v-38.9c0-59.8,37.2-86.5,89-86.5ZM504.5,189.6v-41.1c-16.7,6.5-25.1,20.9-26.9,41.1h26.9Z"/>
  <path class="st1" d="M638,112.4v125.4h-30.9v-38.9c0-25.1-8.9-42-28.2-48.3v87.2h-30.9v-125.4c25.1,0,44.9,8,59.1,21.6v-21.6h30.9Z"/>
  <path class="st1" d="M650.7,112.4h21.8c11.8,0,20.2.5,25.3,1.5,25.6,4.4,51.1,28,51.1,61.4s-18.7,50.5-41.6,58.3c-8,2.7-18,4.2-34.7,4.2h-21.8v-125.4ZM718,175.1c0-17.3-12.7-32.7-36.3-32.7v65.4c23.6,0,36.3-15.4,36.3-32.7Z"/>
  <path class="st0" d="M790.8,142.4v18.2h32.7v29.1h-32.7v18.2h48.2v30h-79v-125.4h79v30h-48.2Z"/>
  <path class="st0" d="M899,142.4h-39.4v-30h89l-49.6,95.4h50v30h-100.8l50.9-95.4Z"/>
</svg>