<?xml version="1.0" encoding="UTF-8"?>
<svg id="Layer_1" xmlns="http://www.w3.org/2000/svg" xmlns:xlink="http://www.w3.org/1999/xlink" version="1.1" viewBox="0 0 180 180">
  <!-- Generator: Adobe Illustrator 29.5.0, SVG Export Plug-In . SVG Version: 2.1.0 Build 137)  -->
  <defs>
    <style>
      .st0 {
        fill: none;
      }

      .st1 {
        fill: #fff;
      }

      .st2 {
        fill: #4e73df;
      }

      .st3 {
        clip-path: url(#clippath);
      }
    </style>
    <clipPath id="clippath">
      <path class="st0" d="M.4-.3v180.8h179.9V-.3H.4Z"/>
    </clipPath>
  </defs>
  <path class="st2" d="M-.4.1v179.6h180.7V.1H-.4Z"/>
  <g class="st3">
    <g>
      <path class="st1" d="M139.8,284.1l-12.8,13v63.2c22.8,12.8,38.1,37.1,38.1,65.1,0,41.2-33.4,74.6-74.6,74.6S15.9,466.7,15.9,425.4c0-28.4,15.8-53,39.1-65.7v-62.6s-13.1-13.3-13.1-13.3c-58.8,20.2-101.1,75.9-101.1,141.6S7.8,575.1,90.5,575.1s149.7-67,149.7-149.7c0-65.4-41.9-120.9-100.3-141.3Z"/>
      <path class="st1" d="M193.5,161v14.8h0v53.5l-5,5.4-2.7,2.8c68.5,34.8,115.4,105.9,115.4,188,0,116.4-94.3,210.7-210.7,210.7s-210.7-94.3-210.7-210.7S-73,271.8-4.2,237.2l-2.4-2.4-5-5.4v-37.4s0-22.8,0-22.8v-8.5c-106.3,41-181.7,144.1-181.7,264.9s127.1,283.8,283.8,283.8,283.8-127.1,283.8-283.8-75-223.2-180.7-264.5Z"/>
      <path class="st1" d="M28.7,24.6l5.7,1.6c3.1.9,5.5,3.3,6.3,6.5l1.1,4.4c.4,1.6,2.6,1.6,3.1,0l1.3-4.6c.8-3,3.2-5.4,6.2-6.3l5.3-1.5c1.5-.5,1.5-2.6,0-3.1l-4.7-1.2c-3.1-.8-5.6-3.2-6.4-6.3l-1.5-5.4c-.4-1.5-2.6-1.5-3,0l-1.4,5c-.8,3-3.2,5.4-6.2,6.2l-5.4,1.6c-1.5.4-1.5,2.6,0,3Z"/>
      <path class="st1" d="M44.6,75.1l12,3.4c6.6,1.9,11.6,7.1,13.3,13.7l2.4,9.4c.3,1.4,1.4,2.2,2.5,2.4h0c0,0,.1,0,.2,0,0,0,.1,0,.2,0h0c1.1-.3,2.1-1.1,2.5-2.5l2.4-9.4c1.7-6.6,6.8-11.8,13.3-13.7l12-3.4c3.2-.9,3.3-5.5,0-6.5l-11.6-3.4c-6.4-1.9-11.3-6.9-13.1-13.3l-3-10.7c-.4-1.4-1.4-2.2-2.6-2.4h0c0,0-.1,0-.2,0,0,0-.1,0-.2,0h0c-1.1.3-2.2,1.1-2.6,2.4l-3,10.7c-1.8,6.4-6.7,11.4-13.1,13.3l-11.6,3.4c-3.2.9-3.2,5.5,0,6.5Z"/>
      <path class="st1" d="M115,51.7l6.4,1.9c3.6,1.1,6.4,3.9,7.4,7.6l1.5,5.6c.5,1.9,3.2,1.9,3.7,0l1.4-5.4c1-3.8,3.8-6.7,7.6-7.8l6.8-2c1.8-.5,1.9-3.1,0-3.7l-6.6-1.9c-3.6-1.1-6.5-3.9-7.5-7.5l-1.7-6.1c-.5-1.9-3.2-1.9-3.7,0l-1.9,6.6c-1.1,3.7-4,6.6-7.8,7.6l-5.7,1.5c-1.9.5-1.9,3.1,0,3.7Z"/>
      <g>
        <polygon class="st1" points="89.6 305 2.8 218.3 2.8 179.9 89.6 266 176.4 179.9 176.4 218.3 89.6 305"/>
        <polygon class="st1" points="89.6 242.3 2.8 155.5 2.8 117.2 89.6 203.3 176.4 117.2 176.4 155.5 89.6 242.3"/>
        <polygon class="st1" points="89.6 179.6 2.8 92.8 2.8 54.4 89.6 140.5 176.4 54.4 176.4 92.8 89.6 179.6"/>
      </g>
      <path class="st1" d="M73.4,277.9v155.5s3.7,6.1,16,6.1,16.5-6.1,16.5-6.1v-155.5h-32.5Z"/>
    </g>
  </g>
</svg>