<?xml version="1.0" encoding="UTF-8"?>
<svg id="Layer_1" data-name="Layer 1" xmlns="http://www.w3.org/2000/svg" width="14.61in" height="4.57in" viewBox="0 0 1051.91 328.86">
  <defs>
    <style>
      .cls-1 {
        fill: #576fb5;
      }

      .cls-2 {
        fill: #fff;
      }
    </style>
  </defs>
  <g>
    <path class="cls-2" d="M333.51,125.14c13.1,0,23.82,11.48,23.82,25.52v13.69c0,5.82-1.84,11.2-4.93,15.51,3.08,4.3,4.93,9.68,4.93,15.51v13.69c0,14.04-10.71,25.52-23.82,25.52h-71.28v-109.45h71.28ZM338.63,164.36v-13.69c0-2.98-2.34-5.49-5.12-5.49h-52.6v24.67h52.6c2.78,0,5.13-2.5,5.12-5.49ZM333.52,214.57c2.78,0,5.12-2.52,5.12-5.5v-13.68c0-3-2.34-5.5-5.12-5.5h-52.6v24.68h52.6Z"/>
    <path class="cls-2" d="M442.39,125.14c14.27,0,25.95,12.52,25.95,27.82v33.8c0,12.48-7.78,23.11-18.4,26.6l18.4,21.23h-25.84l-17.07-20.02h-33.51v20.02h-18.68v-109.45h69.15ZM449.66,186.75v-33.78c0-4.29-3.28-7.79-7.27-7.79h-50.46v49.37h50.46c3.99,0,7.26-3.52,7.27-7.79Z"/>
    <path class="cls-2" d="M567.3,234.59l-7.96-20.02h-55.15l-7.95,20.02h-19.86l37.34-94.61h.04s5.9-14.84,5.9-14.84h24.26l7.96,20.02h-.01l35.3,89.43h-19.86ZM531.78,145.18l-19.63,49.37h39.24l-19.61-49.37Z"/>
    <path class="cls-2" d="M616.16,125.14l57.72,61.25v-61.25h18.68v109.45h-18.68v-20.02l-57.72-61.24v81.26h-18.69v-109.45h18.69Z"/>
    <path class="cls-2" d="M710.08,125.14h69.15c14.27,0,25.95,12.52,25.95,27.83v53.82c0,15.29-11.68,27.82-25.95,27.82h-69.15v-109.46ZM786.5,206.79v-53.82c0-4.29-3.27-7.79-7.27-7.79h-50.45v69.39h50.45c3.99,0,7.26-3.5,7.27-7.78Z"/>
    <path class="cls-1" d="M908.05,125.14v20.04h-68.13v24.67h55.1v20.04h-55.1v24.68h68.13v20.02h-86.81v-109.45h86.81Z"/>
    <path class="cls-1" d="M915.48,145.18v-20.04h95.1v20.04l-68,69.39h68v20.02h-95.1v-20.02l68.01-69.39h-68.01Z"/>
  </g>
  <g>
    <path class="cls-2" d="M140.87,130.11l-4.36,4.43v21.47c7.73,4.34,12.96,12.62,12.96,22.12,0,14-11.35,25.35-25.35,25.35s-25.35-11.35-25.35-25.35c0-9.64,5.38-18.02,13.3-22.31v-21.27s-4.45-4.51-4.45-4.51c-19.98,6.86-34.35,25.79-34.35,48.1,0,28.08,22.77,50.85,50.85,50.85s50.85-22.77,50.85-50.85c0-22.21-14.24-41.08-34.09-48.01Z"/>
    <path class="cls-2" d="M159.12,88.26v5.04h0v18.17l-1.7,1.84-.93.94c23.27,11.82,39.21,35.98,39.21,63.87,0,39.54-32.05,71.59-71.59,71.59s-71.59-32.05-71.59-71.59c0-27.98,16.05-52.2,39.44-63.98l-.81-.83-1.7-1.84v-12.71s0-7.74,0-7.74v-2.89c-36.12,13.93-61.75,48.96-61.75,89.99,0,53.25,43.17,96.42,96.42,96.42s96.42-43.17,96.42-96.42c0-40.9-25.47-75.85-61.41-89.86Z"/>
    <path class="cls-2" d="M103.1,41.93l1.92.55c1.05.3,1.86,1.14,2.13,2.19l.38,1.51c.14.53.89.54,1.04.01l.43-1.57c.28-1.02,1.07-1.83,2.09-2.13l1.79-.53c.52-.15.51-.9-.02-1.04l-1.61-.41c-1.06-.27-1.89-1.09-2.19-2.14l-.52-1.85c-.15-.52-.89-.52-1.04,0l-.47,1.7c-.28,1.02-1.08,1.83-2.1,2.12l-1.85.54c-.52.15-.52.88,0,1.03Z"/>
    <path class="cls-2" d="M108.52,59.08l4.09,1.17c2.23.64,3.96,2.41,4.53,4.66l.81,3.2c.12.47.46.74.84.83v.02s.04,0,.06-.01c.02,0,.04,0,.06.01v-.02c.38-.09.72-.36.84-.83l.81-3.2c.57-2.25,2.3-4.02,4.53-4.66l4.09-1.17c1.1-.31,1.11-1.88,0-2.19l-3.93-1.14c-2.17-.63-3.85-2.34-4.46-4.51l-1.01-3.62c-.13-.47-.48-.73-.87-.81v-.02s-.04,0-.06,0c-.02,0-.04,0-.06,0v.02c-.39.08-.74.34-.87.81l-1.01,3.62c-.61,2.17-2.29,3.88-4.46,4.51l-3.93,1.14c-1.1.32-1.1,1.88,0,2.19Z"/>
    <path class="cls-2" d="M132.46,51.12l2.17.64c1.23.36,2.19,1.33,2.53,2.57l.52,1.9c.18.64,1.09.63,1.26-.01l.46-1.82c.32-1.28,1.31-2.29,2.57-2.65l2.32-.66c.63-.18.63-1.07,0-1.25l-2.24-.65c-1.23-.36-2.19-1.33-2.54-2.57l-.57-2.06c-.18-.63-1.07-.63-1.25,0l-.63,2.24c-.36,1.27-1.37,2.25-2.64,2.58l-1.94.5c-.64.16-.65,1.07-.02,1.25Z"/>
    <g>
      <polygon class="cls-2" points="123.81 137.21 94.33 107.73 94.33 94.69 123.81 123.94 153.29 94.69 153.29 107.73 123.81 137.21"/>
      <polygon class="cls-2" points="123.81 115.89 94.33 86.41 94.33 73.37 123.81 102.62 153.29 73.37 153.29 86.41 123.81 115.89"/>
      <polygon class="cls-2" points="123.81 94.57 94.33 65.09 94.33 52.05 123.81 81.31 153.29 52.05 153.29 65.09 123.81 94.57"/>
    </g>
    <path class="cls-2" d="M118.29,127.99v52.84s1.26,2.08,5.44,2.08,5.59-2.08,5.59-2.08v-52.84h-11.03Z"/>
  </g>
</svg>