<?xml version="1.0" encoding="UTF-8"?>
<svg id="Layer_1" data-name="Layer 1" xmlns="http://www.w3.org/2000/svg" width="2.68in" height="3.31in" viewBox="0 0 192.84 238.41">
  <defs>
    <style>
      .cls-1 {
        fill: #fff;
      }
    </style>
  </defs>
  <path class="cls-1" d="M113.18,93.98l-4.36,4.43v21.47c7.73,4.34,12.96,12.62,12.96,22.12,0,14-11.35,25.35-25.35,25.35s-25.35-11.35-25.35-25.35c0-9.64,5.38-18.02,13.3-22.31v-21.27s-4.45-4.51-4.45-4.51c-19.98,6.86-34.35,25.79-34.35,48.1,0,28.08,22.77,50.85,50.85,50.85s50.85-22.77,50.85-50.85c0-22.21-14.24-41.08-34.09-48.01Z"/>
  <path class="cls-1" d="M131.43,52.12v5.04h0v18.17l-1.7,1.84-.93.94c23.27,11.82,39.21,35.98,39.21,63.87,0,39.54-32.05,71.59-71.59,71.59S24.83,181.53,24.83,141.99c0-27.98,16.05-52.2,39.44-63.98l-.81-.83-1.7-1.84v-12.71s0-7.74,0-7.74v-2.89C25.63,65.92,0,100.96,0,141.99c0,53.25,43.17,96.42,96.42,96.42s96.42-43.17,96.42-96.42c0-40.9-25.47-75.85-61.41-89.86Z"/>
  <path class="cls-1" d="M75.41,5.79l1.92.55c1.05.3,1.86,1.14,2.13,2.19l.38,1.51c.14.53.89.54,1.04.01l.43-1.57c.28-1.02,1.07-1.83,2.09-2.13l1.79-.53c.52-.15.51-.9-.02-1.04l-1.61-.41c-1.06-.27-1.89-1.09-2.19-2.14l-.52-1.85c-.15-.52-.89-.52-1.04,0l-.47,1.7c-.28,1.02-1.08,1.83-2.1,2.12l-1.85.54c-.52.15-.52.88,0,1.03Z"/>
  <path class="cls-1" d="M80.83,22.94l4.09,1.17c2.23.64,3.96,2.41,4.53,4.66l.81,3.2c.12.47.46.74.84.83v.02s.04,0,.06-.01c.02,0,.04,0,.06.01v-.02c.38-.09.72-.36.84-.83l.81-3.2c.57-2.25,2.3-4.02,4.53-4.66l4.09-1.17c1.1-.31,1.11-1.88,0-2.19l-3.93-1.14c-2.17-.63-3.85-2.34-4.46-4.51l-1.01-3.62c-.13-.47-.48-.73-.87-.81v-.02s-.04,0-.06,0c-.02,0-.04,0-.06,0v.02c-.39.08-.74.34-.87.81l-1.01,3.62c-.61,2.17-2.29,3.88-4.46,4.51l-3.93,1.14c-1.1.32-1.1,1.88,0,2.19Z"/>
  <path class="cls-1" d="M104.77,14.99l2.17.64c1.23.36,2.19,1.33,2.53,2.57l.52,1.9c.18.64,1.09.63,1.26-.01l.46-1.82c.32-1.28,1.31-2.29,2.57-2.65l2.32-.66c.63-.18.63-1.07,0-1.25l-2.24-.65c-1.23-.36-2.19-1.33-2.54-2.57l-.57-2.06c-.18-.63-1.07-.63-1.25,0l-.63,2.24c-.36,1.27-1.37,2.25-2.64,2.58l-1.94.5c-.64.16-.65,1.07-.02,1.25Z"/>
  <g>
    <polygon class="cls-1" points="96.12 101.07 66.64 71.59 66.64 58.55 96.12 87.81 125.6 58.55 125.6 71.59 96.12 101.07"/>
    <polygon class="cls-1" points="96.12 79.75 66.64 50.28 66.64 37.24 96.12 66.49 125.6 37.24 125.6 50.28 96.12 79.75"/>
    <polygon class="cls-1" points="96.12 58.44 66.64 28.96 66.64 15.92 96.12 45.17 125.6 15.92 125.6 28.96 96.12 58.44"/>
  </g>
  <path class="cls-1" d="M90.61,91.86v52.84s1.26,2.08,5.44,2.08,5.59-2.08,5.59-2.08v-52.84h-11.03Z"/>
</svg>