<?xml version="1.0" encoding="UTF-8"?>
<svg id="Layer_1" xmlns="http://www.w3.org/2000/svg" version="1.1" viewBox="0 0 486.5 605.9">
  <!-- Generator: Adobe Illustrator 29.5.0, SVG Export Plug-In . SVG Version: 2.1.0 Build 137)  -->
  <defs>
    <style>
      .st0 {
        fill: #606161;
      }
    </style>
  </defs>
  <path class="st0" d="M215,307.7v-50.4s-10.5-10.7-10.5-10.7c-47.4,16.3-81.4,61.1-81.4,114s54,120.5,120.5,120.5,120.5-54,120.5-120.5c0-52.6-33.8-97.4-80.8-113.8l-10.3,10.5v50.9c18.3,10.3,30.7,29.9,30.7,52.4,0,33.2-26.9,60.1-60.1,60.1s-60.1-26.9-60.1-60.1c0-22.8,12.8-42.7,31.5-52.9Z"/>
  <path class="st0" d="M326.6,147.6v55l-4,4.4-2.2,2.2c55.2,28,92.9,85.3,92.9,151.4,0,93.7-76,169.7-169.7,169.7s-169.7-76-169.7-169.7,38-123.7,93.5-151.7l-1.9-2-4-4.4v-30.1s0-18.4,0-18.4v-6.9C75.8,180.3,15,263.3,15,360.6s102.3,228.6,228.6,228.6,228.6-102.3,228.6-228.6-60.4-179.8-145.6-213Z"/>
  <path class="st0" d="M193.8,37.7l4.6,1.3c2.5.7,4.4,2.7,5.1,5.2l.9,3.6c.3,1.3,2.1,1.3,2.5,0l1-3.7c.7-2.4,2.5-4.3,5-5l4.3-1.2c1.2-.4,1.2-2.1,0-2.5l-3.8-1c-2.5-.6-4.5-2.6-5.2-5.1l-1.2-4.4c-.4-1.2-2.1-1.2-2.5,0l-1.1,4c-.7,2.4-2.6,4.3-5,5l-4.4,1.3c-1.2.4-1.2,2.1,0,2.4Z"/>
  <path class="st0" d="M206.6,73.2c-2.6.8-2.6,4.5,0,5.2l9.7,2.8c5.3,1.5,9.4,5.7,10.7,11.1l1.9,7.6c.3,1.1,1.1,1.8,2,2h0s0,0,.1,0c0,0,0,0,.1,0h0c.9-.3,1.7-.9,2-2l1.9-7.6c1.4-5.3,5.4-9.5,10.7-11.1l9.7-2.8c2.6-.7,2.6-4.4,0-5.2l-9.3-2.7c-5.1-1.5-9.1-5.5-10.6-10.7l-2.4-8.6c-.3-1.1-1.1-1.7-2.1-1.9h0s0,0-.1,0c0,0,0,0-.1,0h0c-.9.2-1.8.9-2.1,2l-2.4,8.6c-1.4,5.2-5.4,9.2-10.6,10.7l-9.3,2.7Z"/>
  <path class="st0" d="M263.4,59.5l5.1,1.5c2.9.9,5.2,3.2,6,6.1l1.2,4.5c.4,1.5,2.6,1.5,3,0l1.1-4.3c.8-3,3.1-5.4,6.1-6.3l5.5-1.6c1.5-.4,1.5-2.5,0-3l-5.3-1.5c-2.9-.8-5.2-3.1-6-6.1l-1.4-4.9c-.4-1.5-2.5-1.5-3,0l-1.5,5.3c-.9,3-3.2,5.3-6.3,6.1l-4.6,1.2c-1.5.4-1.6,2.5,0,3Z"/>
  <polygon class="st0" points="312.8 143.2 312.8 112.3 242.9 181.6 173 112.3 173 143.2 242.9 213.1 312.8 143.2"/>
  <polygon class="st0" points="312.8 92.7 312.8 61.7 242.9 131.1 173 61.7 173 92.7 242.9 162.5 312.8 92.7"/>
  <path class="st0" d="M229.8,367s3,4.9,12.9,4.9,13.3-4.9,13.3-4.9v-116.5s56.8-56.8,56.8-56.8v-30.9s-69.9,69.3-69.9,69.3l-69.9-69.3v30.9s56.8,56.8,56.8,56.8v116.5Z"/>
</svg>