<?xml version="1.0" encoding="UTF-8"?>
<svg id="Layer_1" xmlns="http://www.w3.org/2000/svg" version="1.1" viewBox="0 0 1065.2 284.3">
  <!-- Generator: Adobe Illustrator 29.5.0, SVG Export Plug-In . SVG Version: 2.1.0 Build 137)  -->
  <defs>
    <style>
      .st0 {
        fill: #fff;
      }

      .st1 {
        fill: #4e73df;
      }
    </style>
  </defs>
  <path class="st0" d="M451,84.1v155.6h159.7V84.1h-159.7Z"/>
  <path class="st0" d="M93.3,74.9l-.3,4v-45h-48.5v217.1h180.6V74.9H93.3ZM176.3,201.1h-83.3v-76.4h83.3v76.4Z"/>
  <path class="st0" d="M424.2,75.6v49.9h-132v126.1h-48.7V75.6h180.8-.1Z"/>
  <path class="st0" d="M819.6,73.9v176.1h-48.7v-126.1h-83.3v126.1h-48.7V73.9h180.8,0Z"/>
  <path class="st0" d="M969.1,33.9v41.1h-132.1v176.1h180.8V33.9h-48.7ZM885.7,201.1v-76.4h83.3v76.4h-83.3Z"/>
  <path class="st1" d="M440.5,73.9v176.1h180.7V73.9h-180.7ZM572.5,231l-20.5-29.9h-62.8v-76.4h83.3v106.3Z"/>
</svg>